<svg xmlns="http://www.w3.org/2000/svg" viewBox="0 0 1200 800" role="img" aria-labelledby="title desc">
  <title id="title">hero 1</title>
  <desc id="desc">Red-toned campus auditorium placeholder</desc>
  <defs>
    <linearGradient id="g" x1="0" y1="0" x2="1" y2="1">
      <stop offset="0" stop-color="#b26a4e"/>
      <stop offset="0.45" stop-color="#a44b33"/>
      <stop offset="1" stop-color="#551417"/>
    </linearGradient>
    <linearGradient id="g2" x1="0" y1="0" x2="0" y2="1">
      <stop offset="0" stop-color="#fff5cf" stop-opacity="0.95"/>
      <stop offset="1" stop-color="#ffd49b" stop-opacity="0.2"/>
    </linearGradient>
  </defs>
  <rect width="1200" height="800" fill="url(#g)"/>
  <rect width="1200" height="300" fill="url(#g2)" opacity="0.75"/>
  <g opacity="0.22" fill="#fff0d9">
    <rect x="0" y="0" width="1200" height="16"/>
    <rect x="0" y="44" width="1200" height="10"/>
    <rect x="0" y="84" width="1200" height="10"/>
    <rect x="0" y="124" width="1200" height="10"/>
    <rect x="0" y="164" width="1200" height="10"/>
  </g>
  <g fill="#d18d57" opacity="0.82">
    <rect x="80" y="310" width="1040" height="280" rx="16"/>
    <rect x="120" y="350" width="120" height="230" rx="8" fill="#8f4a34"/>
    <rect x="280" y="340" width="80" height="240" rx="8" fill="#8f4a34"/>
    <rect x="390" y="330" width="140" height="250" rx="8" fill="#8f4a34"/>
    <rect x="570" y="340" width="120" height="240" rx="8" fill="#8f4a34"/>
    <rect x="730" y="320" width="90" height="260" rx="8" fill="#8f4a34"/>
    <rect x="850" y="335" width="160" height="245" rx="8" fill="#8f4a34"/>
  </g>
  <g opacity="0.92" fill="#fff6df">
    <rect x="100" y="126" width="18" height="450" rx="9"/>
    <rect x="206" y="126" width="18" height="450" rx="9"/>
    <rect x="312" y="126" width="18" height="450" rx="9"/>
    <rect x="418" y="126" width="18" height="450" rx="9"/>
    <rect x="524" y="126" width="18" height="450" rx="9"/>
    <rect x="630" y="126" width="18" height="450" rx="9"/>
    <rect x="736" y="126" width="18" height="450" rx="9"/>
    <rect x="842" y="126" width="18" height="450" rx="9"/>
    <rect x="948" y="126" width="18" height="450" rx="9"/>
    <rect x="1054" y="126" width="18" height="450" rx="9"/>
  </g>
  <text x="80" y="710" fill="#fff7ec" font-family="Arial, sans-serif" font-size="56" font-weight="700">校园主视觉</text>
  <text x="80" y="760" fill="#fff7ec" opacity="0.88" font-family="Arial, sans-serif" font-size="26">placeholder image</text>
</svg>
