<svg xmlns="http://www.w3.org/2000/svg" viewBox="0 0 1200 800" role="img" aria-labelledby="title desc">
  <title id="title">hero 2</title>
  <desc id="desc">Campus skyline placeholder</desc>
  <defs>
    <linearGradient id="bg" x1="0" y1="0" x2="1" y2="1">
      <stop offset="0" stop-color="#efdfbf"/>
      <stop offset="0.55" stop-color="#d2a06e"/>
      <stop offset="1" stop-color="#98532e"/>
    </linearGradient>
    <linearGradient id="sky" x1="0" y1="0" x2="0" y2="1">
      <stop offset="0" stop-color="#9ed1f8"/>
      <stop offset="1" stop-color="#f8fbff"/>
    </linearGradient>
  </defs>
  <rect width="1200" height="800" fill="url(#bg)"/>
  <rect width="1200" height="420" fill="url(#sky)" opacity="0.92"/>
  <rect y="430" width="1200" height="370" fill="#f0d1a8"/>
  <g fill="#ab5a34">
    <rect x="70" y="325" width="170" height="300" rx="8"/>
    <rect x="270" y="285" width="220" height="340" rx="8"/>
    <rect x="530" y="260" width="260" height="365" rx="8"/>
    <rect x="820" y="300" width="180" height="325" rx="8"/>
    <rect x="1030" y="345" width="90" height="280" rx="8"/>
  </g>
  <g fill="#fff6ec" opacity="0.8">
    <rect x="105" y="362" width="22" height="260" rx="11"/>
    <rect x="156" y="362" width="22" height="260" rx="11"/>
    <rect x="316" y="322" width="22" height="300" rx="11"/>
    <rect x="368" y="322" width="22" height="300" rx="11"/>
    <rect x="621" y="293" width="22" height="330" rx="11"/>
    <rect x="671" y="293" width="22" height="330" rx="11"/>
    <rect x="912" y="334" width="18" height="290" rx="9"/>
  </g>
  <text x="78" y="710" fill="#fff9ef" font-family="Arial, sans-serif" font-size="52" font-weight="700">新闻中心封面</text>
</svg>
