<svg xmlns="http://www.w3.org/2000/svg" viewBox="0 0 1200 800" role="img" aria-labelledby="title desc">
  <title id="title">news feature</title>
  <desc id="desc">Campus building placeholder</desc>
  <defs>
    <linearGradient id="sky" x1="0" y1="0" x2="0" y2="1">
      <stop offset="0" stop-color="#9fd3ff"/>
      <stop offset="1" stop-color="#eff7ff"/>
    </linearGradient>
    <linearGradient id="ground" x1="0" y1="0" x2="1" y2="1">
      <stop offset="0" stop-color="#267a38"/>
      <stop offset="1" stop-color="#0b4b1a"/>
    </linearGradient>
  </defs>
  <rect width="1200" height="800" fill="url(#sky)"/>
  <rect y="530" width="1200" height="270" fill="url(#ground)"/>
  <g fill="#d9dedf">
    <rect x="60" y="160" width="170" height="370" rx="10"/>
    <rect x="280" y="110" width="190" height="420" rx="10"/>
    <rect x="520" y="145" width="240" height="385" rx="10"/>
    <rect x="810" y="90" width="300" height="440" rx="10"/>
  </g>
  <g fill="#ffffff" opacity="0.8">
    <rect x="95" y="200" width="20" height="310" rx="10"/>
    <rect x="145" y="200" width="20" height="310" rx="10"/>
    <rect x="335" y="150" width="20" height="360" rx="10"/>
    <rect x="385" y="150" width="20" height="360" rx="10"/>
    <rect x="570" y="184" width="20" height="326" rx="10"/>
    <rect x="620" y="184" width="20" height="326" rx="10"/>
    <rect x="902" y="138" width="20" height="372" rx="10"/>
    <rect x="964" y="138" width="20" height="372" rx="10"/>
  </g>
  <rect x="300" y="610" width="600" height="70" rx="35" fill="#c7a27a" opacity="0.6"/>
  <text x="320" y="656" fill="#4b3424" font-family="Arial, sans-serif" font-size="34" font-weight="700">新闻学院 / placeholder</text>
</svg>
