<svg xmlns="http://www.w3.org/2000/svg" viewBox="0 0 64 64" role="img" aria-label="WeChat">
  <circle cx="32" cy="32" r="32" fill="#ffffff" opacity="0.98"/>
  <path d="M27.1 20.3c-9.1 0-16.5 5.7-16.5 12.8 0 4.1 2.5 7.7 6.3 10l-1.2 4.2 5.1-2.5c1.9.7 4 1.1 6.3 1.1 1.2 0 2.4-.1 3.5-.3-.5-1.2-.8-2.5-.8-3.9 0-6.2 6-11.2 13.6-11.2h.2c-1.6-5.9-8.3-10.2-16.5-10.2z" fill="#b1182d"/>
  <path d="M43.4 32.9c-6.7 0-12.1 4.1-12.1 9.1s5.4 9.1 12.1 9.1c1.6 0 3.1-.2 4.5-.7l4 1.9-.9-3.3c2.8-1.7 4.6-4.2 4.6-7 0-5-5.4-9.1-12.2-9.1z" fill="#b1182d"/>
  <circle cx="21.8" cy="30.7" r="2.1" fill="#ffffff"/>
  <circle cx="32.5" cy="30.7" r="2.1" fill="#ffffff"/>
  <circle cx="39.4" cy="40.6" r="1.6" fill="#ffffff"/>
  <circle cx="47.7" cy="40.6" r="1.6" fill="#ffffff"/>
</svg>
