<svg xmlns="http://www.w3.org/2000/svg" viewBox="0 0 64 64" role="img" aria-label="Bilibili">
  <circle cx="32" cy="32" r="32" fill="#ffffff" opacity="0.98"/>
  <path d="M22.9 15.1a2.5 2.5 0 0 1 3.5.2l4.3 4.8h2.6l4.3-4.8a2.5 2.5 0 1 1 3.7 3.3l-1.4 1.5h5.8c4.5 0 8.1 3.6 8.1 8.1v17.2c0 4.5-3.6 8.1-8.1 8.1H18.3c-4.5 0-8.1-3.6-8.1-8.1V28.2c0-4.5 3.6-8.1 8.1-8.1h5.8l-1.4-1.5a2.5 2.5 0 0 1 .2-3.5z" fill="#b1182d"/>
  <rect x="15.8" y="25.8" width="32.4" height="22.1" rx="5.4" fill="#ffffff"/>
  <rect x="21.7" y="33.2" width="3.8" height="7.6" rx="1.9" fill="#b1182d"/>
  <rect x="38.5" y="33.2" width="3.8" height="7.6" rx="1.9" fill="#b1182d"/>
  <path d="M27.9 43.1c2.8 1.7 5.4 1.7 8.2 0" fill="none" stroke="#b1182d" stroke-width="2.6" stroke-linecap="round"/>
</svg>
